# xmcd
# Copyright (C) 1995-1998 Ti Kan
#
# Track frame offsets:
#       150
#       22097
#       57577
#       81144
#       105277
#       130341
#       148781
#       164827
#       189372
#       223936
#       245333
#
# Disc length: 3492 seconds
#
# Revision: 0
# Processed by: cddbd v1.5.2PL0 Copyright (c) Steve Scherf et al.
# Submitted via: CD-Import v1.0
#
DISCID=a30da20b
DTITLE=Romeo - Pathway
DYEAR=1900
DGENRE=
TTITLE0=Trace
TTITLE1=Unit
TTITLE2=Mental
TTITLE3=Instinct
TTITLE4=Berlin
TTITLE5=Wizard
TTITLE6=Space
TTITLE7=Transfert
TTITLE8=Verso
TTITLE9=Traveler
TTITLE10=Pathway
EXTD=
EXTT0=
EXTT1=
EXTT2=
EXTT3=
EXTT4=
EXTT5=
EXTT6=
EXTT7=
EXTT8=
EXTT9=
EXTT10=
PLAYORDER=
